<svg width="26" height="25" viewBox="0 0 26 25" fill="none" xmlns="http://www.w3.org/2000/svg">
<path d="M8.48535 20C7.11035 20 5.99785 21.125 5.99785 22.5C5.99785 23.875 7.11035 25 8.48535 25C9.86035 25 10.9854 23.875 10.9854 22.5C10.9854 21.125 9.86035 20 8.48535 20ZM0.985352 1.25C0.985352 1.9375 1.54785 2.5 2.23535 2.5H3.48535L7.98535 11.9875L6.29785 15.0375C5.38535 16.7125 6.58535 18.75 8.48535 18.75H22.2354C22.9229 18.75 23.4854 18.1875 23.4854 17.5C23.4854 16.8125 22.9229 16.25 22.2354 16.25H8.48535L9.86035 13.75H19.1729C20.1104 13.75 20.9354 13.2375 21.3604 12.4625L25.8354 4.35C26.2978 3.525 25.6979 2.5 24.7479 2.5H6.24785L5.41035 0.7125C5.21035 0.275 4.76035 0 4.28535 0H2.23535C1.54785 0 0.985352 0.5625 0.985352 1.25ZM20.9854 20C19.6104 20 18.4979 21.125 18.4979 22.5C18.4979 23.875 19.6104 25 20.9854 25C22.3604 25 23.4854 23.875 23.4854 22.5C23.4854 21.125 22.3604 20 20.9854 20Z" fill="white"/>
</svg>
